<?xml version="1.0" encoding="utf-8"?>
<!-- Generator: Adobe Illustrator 24.3.0, SVG Export Plug-In . SVG Version: 6.00 Build 0)  -->
<svg version="1.0" id="katman_1" xmlns="http://www.w3.org/2000/svg" xmlns:xlink="http://www.w3.org/1999/xlink" x="0px" y="0px"
	 viewBox="0 0 841.89 595.28" style="enable-background:new 0 0 841.89 595.28;" xml:space="preserve">
<style type="text/css">
	.st0{fill:#E5137F;}
	.st1{fill:#F59E27;}
</style>
<path class="st0" d="M273.58,299.87v34.4h-28.65V220.19h28.65v57.87h12.84l18.28-30.58h30.01l-24.57,41.77l24.6,45.03H304.7
	l-18.85-34.37L273.58,299.87z"/>
<path class="st0" d="M422.87,309.71l-0.28-37.38v-4.36c-1.07-13.12-12.81-22.67-26.18-21.57h-37.34c-1.55-0.16-3.07-0.16-4.59,0
	c-3.13,0.28-6.13,1.2-8.88,2.66c-2.75,1.45-5.22,3.45-7.18,5.88c-1.99,2.4-3.48,5.15-4.4,8.16c-0.92,2.97-1.23,6.1-0.95,9.23v41.74
	c1.11,13.09,12.84,22.64,25.93,21.57h42.28C414.42,334.53,423.97,322.8,422.87,309.71z M394.47,308.35
	c-0.03,0.76-0.25,1.52-0.6,2.21c-0.38,0.7-0.89,1.3-1.52,1.77c-0.63,0.44-1.33,0.79-2.12,0.95c-0.76,0.16-1.55,0.16-2.31-0.03
	h-21.28c-3.26-0.28-5.19-3-4.9-6.26v-33.83c0.16-1.52,0.89-2.91,2.06-3.89c1.2-0.98,2.69-1.42,4.24-1.3h21.28
	c3,0.28,5.19,3.26,4.9,6.55h0.28L394.47,308.35z"/>
<path class="st0" d="M479.09,269.58c-6.7,0-13.34,1.11-19.67,3.29v60.84h-28.65v-86.23h25.11l1.64,8.19
	c5.19-3,10.37-5.72,15.84-7.08c4.43-1.64,9.14-2.47,13.88-2.47h7.08c3.04-0.22,6.1,0.19,8.98,1.14c2.88,0.98,5.53,2.53,7.81,4.52
	c2.28,1.99,4.14,4.46,5.47,7.18c1.36,2.72,2.12,5.69,2.31,8.73v66.59h-28.08v-58.94c-0.13-1.55-0.79-3.04-1.93-4.11
	c-1.11-1.04-2.56-1.61-4.08-1.64H479.09z"/>
<path class="st0" d="M611.17,338.89v-91.42h-64.67c-6.32,0.7-12.11,3.83-16.13,8.73c-4.02,4.9-5.98,11.16-5.44,17.49v35.48
	c0.41,6.1,3.23,11.79,7.81,15.84c4.62,4.05,10.62,6.1,16.76,5.69h5.72c9.55,0,18.81-1.36,27.83-3.26l-0.54,8.19
	c-0.03,1.52-0.6,2.97-1.64,4.08c-1.14,1.01-2.59,1.58-4.11,1.64c-10.62,0-26.47-0.54-47.21-2.18v21
	c19.13,1.93,37.95,3.29,57.04,3.29h3.04C602.44,362.39,611.99,351.45,611.17,338.89z M583.06,307.24
	c-6.48,1.11-13.06,1.68-19.64,1.68v-0.28h-4.11c-0.73,0-1.45-0.16-2.12-0.47c-0.7-0.28-1.3-0.73-1.8-1.23
	c-0.51-0.54-0.89-1.17-1.17-1.87c-0.25-0.7-0.38-1.42-0.35-2.15v-28.43c0.28-3.29,3.29-5.19,6.55-4.9h22.64V307.24z"/>
<path class="st0" d="M679.38,246.08c-17.99,0.28-35.73,1.11-53.47,3.29l-1.11,19.42l20.46-1.64l23.46-0.82
	c0.76-0.03,1.52,0.09,2.21,0.38c0.73,0.28,1.36,0.73,1.9,1.26c1.07,1.36,1.9,2.72,1.9,4.08v6.55h-36.3
	c-12.55,0.82-22.36,12.02-21.28,24.57v10.91c0.22,3,1.01,5.94,2.37,8.66c1.36,2.69,3.23,5.09,5.5,7.08
	c2.28,1.96,4.93,3.48,7.78,4.43c2.88,0.95,5.91,1.33,8.92,1.11h5.72c4.65,0,9.3-0.82,13.66-2.43c5.72-1.39,10.91-4.11,15.81-7.37
	l1.93,8.16h25.08V267.4C703.12,254.84,691.93,245.29,679.38,246.08z M675.55,309.67c-6.36,1.96-12.96,2.97-19.64,3.04v0.54h-4.08
	c-0.76,0-1.52-0.13-2.21-0.44c-0.7-0.28-1.33-0.7-1.83-1.23c-0.54-0.54-0.98-1.17-1.26-1.87c-0.28-0.7-0.41-1.42-0.41-2.18v-1.64
	c-0.03-0.76,0.09-1.49,0.38-2.21c0.28-0.7,0.7-1.33,1.23-1.87c0.51-0.6,1.14-1.07,1.83-1.42c0.73-0.32,1.49-0.51,2.28-0.47h23.72
	V309.67z"/>
<path class="st0" d="M618.79,356.09h-10.62v11.19h10.62V356.09z"/>
<path class="st0" d="M639,367.83c-2.02,0-4.05-0.28-6.01-0.82l-4.62-2.43c-1.17-1.11-2.09-2.4-2.75-3.83
	c-1.2-2.59-1.58-5.47-1.04-8.29c0.57-2.78,1.99-5.34,4.08-7.27l4.36-2.18c1.77-0.44,3.61-0.63,5.44-0.54l4.36,0.54l3.83,1.36v6.55
	h-1.36l-1.11-1.07c-1.04-0.82-2.24-1.39-3.54-1.64l-2.18-0.28c-1.93,0-3.54,0.54-4.65,1.93c-1.3,1.49-1.99,3.45-1.9,5.41
	c0,1.64,0.54,3.83,1.9,5.19c0.63,0.57,1.36,1.01,2.15,1.3c0.79,0.28,1.64,0.41,2.5,0.35l2.43-0.28l2.21-0.79l1.08-0.82l1.11-0.82
	h1.36v6.55l-3.83,1.64L639,367.83z"/>
<path class="st0" d="M676.12,355.27c0-3.54-1.08-7.08-3.54-9.55c-2.72-2.18-6.01-3.83-9.55-3.26c-3.57-0.06-7.02,1.11-9.87,3.29
	c-2.18,2.47-3.8,6.01-3.26,9.55c-0.03,3.38,1.11,6.64,3.26,9.26c2.72,2.28,6.17,3.54,9.71,3.54c3.54,0,6.96-1.27,9.68-3.54
	C675.01,361.82,676.37,358.81,676.12,355.27z M667.68,358.81l-1.11,2.18l-1.64,1.39c-0.54,0.41-1.2,0.6-1.9,0.54
	c-0.82,0-1.9,0-2.47-0.54c-0.79-0.28-1.36-0.57-1.61-1.11l-1.39-2.18l-0.25-3.54c-0.22-1.3-0.13-2.59,0.25-3.83l1.39-2.47l1.61-1.07
	l2.21-0.28l1.87,0.25c0.38,0.03,0.76,0.13,1.11,0.32c0.32,0.19,0.6,0.47,0.82,0.79l1.07,2.47l0.28,3.54L667.68,358.81z"/>
<path class="st0" d="M704.23,349.83V367h-7.94v-14.99l-0.54-2.18l-1.08-1.11l-2.47-0.28l-2.47,0.57l-1.9,0.82V367h-7.65v-24h7.94
	v2.43l3.8-2.18c1.3-0.54,2.69-0.82,4.11-0.79c1.46-0.03,2.91,0.35,4.17,1.14c1.27,0.76,2.28,1.9,2.91,3.23
	c1.27-1.33,2.75-2.43,4.36-3.29c1.39-0.63,2.85-1.01,4.36-1.08c2.18-0.57,4.36,0.54,5.76,2.18c1.61,2.18,2.43,4.36,2.18,6.8v15.84
	h-7.65v-15.02l-0.54-2.18c-0.13-0.28-0.32-0.51-0.57-0.7c-0.22-0.19-0.51-0.32-0.79-0.38l-2.21-0.28l-1.9,0.28L704.23,349.83z"/>
<path class="st1" d="M233.2,225.94c-5.91-5.94-13-10.62-20.78-13.72s-16.13-4.55-24.51-4.3c-8.19-0.16-16.32,1.33-23.91,4.3
	c-7.62,3-14.55,7.46-20.43,13.15c-5.88,5.66-10.59,12.46-13.85,19.95c-3.26,7.49-5,15.56-5.15,23.72c0,0.73,0,1.49,0,2.21
	c-1.07,34.34,26.21,63.02,60.59,63.84h2.75c34.37,0.79,63.02-26.5,63.59-60.87v-3.29c0.22-8.35-1.27-16.66-4.43-24.41
	C243.95,238.78,239.21,231.76,233.2,225.94z"/>
<path class="st0" d="M187.92,336.46c-16.92,0.28-33.27-6.1-45.5-17.83c-12.21-11.7-19.32-27.76-19.73-44.68v-2.72
	c-0.28-16.92,6.1-33.27,17.8-45.47c11.7-12.24,27.76-19.32,44.68-19.76h2.75c8.35-0.19,16.66,1.26,24.47,4.27
	c7.81,3.04,14.96,7.56,21,13.34c6.07,5.76,10.94,12.68,14.32,20.33c3.38,7.65,5.22,15.91,5.41,24.28v3
	c0.22,8.38-1.2,16.73-4.21,24.54c-3,7.81-7.53,14.96-13.31,21.03c-5.79,6.04-12.71,10.91-20.4,14.29
	c-7.65,3.38-15.91,5.19-24.29,5.38H187.92z M187.92,209.28c-16.03-0.35-31.56,5.63-43.16,16.66
	c-11.61,11.07-18.37,26.25-18.78,42.28v3.04c-0.57,33.55,25.64,61.41,59.48,61.95h2.47c7.94,0.25,15.87-1.08,23.31-3.92
	c7.43-2.85,14.23-7.11,19.98-12.62c5.76-5.47,10.37-12.05,13.57-19.32c3.23-7.3,4.93-15.15,5.09-23.08v-3.04
	c0.82-33.3-25.93-61.12-59.19-61.66L187.92,209.28z"/>
<path class="st0" d="M155.16,249.66c2.24-2.02,5.19-3.1,8.19-3c3.38-0.06,6.7,0.6,9.83,1.9c3.35,1.36,6.58,3.1,9.55,5.19l1.36-1.07
	c-1.93-3.83-4.9-6.83-8.47-9.3c-3.83-2.15-8.16-3.29-12.55-3.26c-2.31,0.06-4.62,0.51-6.8,1.36c-2.21,0.89-4.11,2.4-5.44,4.36
	c-1.36,1.64-2.18,3.83-3.04,5.72c-0.57,2.06-0.76,4.17-0.54,6.29h1.9C150.61,254.75,152.63,251.97,155.16,249.66z M196.36,243.68
	c2.72-1.9,6.01-3,9.3-4.08c2.72-0.82,6.01-0.28,8.73,1.36c2.91,1.8,5.5,4.11,7.62,6.83l1.64-0.57c-0.25-1.9-0.82-4.36-2.18-6.01
	c-0.98-2.06-2.5-3.86-4.36-5.19c-1.64-1.61-4.08-2.43-6.26-3c-2.34-0.54-4.77-0.54-7.11,0c-4.14,1.01-7.97,3.1-11.04,6.07
	s-5.28,6.73-6.42,10.85l1.64,0.82l8.19-7.37L196.36,243.68z M225.58,286.5c-1.3,3.23-3.13,6.17-5.44,8.73
	c-1.11,1.11-2.18,2.47-3.83,3.57l-4.08,3c-6.04,3.23-12.62,5.34-19.38,6.29c-6.8,1.04-13.76,0.85-20.49-0.54
	c-3.29-0.82-6.48-2.02-9.52-3.57c-3.29-1.36-6.01-3.54-9.01-5.72l-0.82,0.82c4.36,6.32,10.69,11,17.99,13.38
	c7.37,2.66,15.27,3.32,22.96,1.9c7.68-1.01,15.02-3.92,21.28-8.44c6.26-4.81,10.4-11.86,11.48-19.67h-1.14V286.5z M186.82,266.04
	l2.47,22.64l1.36-0.28l-2.72-22.36H186.82z"/>
</svg>
